<?xml version="1.0" encoding="utf-8"?>
<!-- Generator: Adobe Illustrator 16.0.0, SVG Export Plug-In . SVG Version: 6.00 Build 0)  -->
<!DOCTYPE svg PUBLIC "-//W3C//DTD SVG 1.1//EN" "http://www.w3.org/Graphics/SVG/1.1/DTD/svg11.dtd">
<svg version="1.1" id="Layer_1" xmlns="http://www.w3.org/2000/svg" xmlns:xlink="http://www.w3.org/1999/xlink" x="0px" y="0px"
	 width="170px" height="170px" viewBox="0 0 170 170" enable-background="new 0 0 170 170" xml:space="preserve">
<g>
	<path fill="#007FDD" d="M110.334,45.228H59.666c-8.087,0-14.667,6.58-14.667,14.667v50.667c0,8.088,6.58,14.67,14.667,14.67h50.668
		c8.088,0,14.669-6.58,14.669-14.67V59.895C125.003,51.808,118.424,45.228,110.334,45.228z M85,111.566
		c-14.521,0-26.336-11.814-26.336-26.337c0-14.521,11.815-26.335,26.336-26.335c14.523,0,26.338,11.814,26.338,26.335
		S99.521,111.566,85,111.566z M112.184,64.338c-3.438,0-6.232-2.795-6.232-6.231s2.795-6.231,6.232-6.231
		c3.437,0,6.232,2.796,6.232,6.231S115.62,64.338,112.184,64.338z"/>
	<path fill="#007FDD" d="M85,70.022c-8.383,0-15.208,6.822-15.208,15.205c0,8.386,6.826,15.21,15.208,15.21
		c8.387,0,15.207-6.824,15.207-15.21C100.207,76.846,93.385,70.022,85,70.022z"/>
	<path fill="#007FDD" d="M85,0C38.058,0,0,38.058,0,85s38.058,85,85,85s85-38.058,85-85S131.942,0,85,0z M136.13,110.563
		c0,14.227-11.57,25.797-25.796,25.797H59.666c-14.224,0-25.796-11.57-25.796-25.797V59.895c0-14.224,11.572-25.796,25.796-25.796
		h50.668c14.226,0,25.796,11.572,25.796,25.796V110.563z"/>
</g>
</svg>
